<mxfile host="app.diagrams.net" agent="Mozilla/5.0 (Windows NT 10.0; Win64; x64) AppleWebKit/537.36 (KHTML, like Gecko) Chrome/129.0.0.0 Safari/537.36" version="24.8.6">
  <diagram id="C5RBs43oDa-KdzZeNtuy" name="Page-1">
    <mxGraphModel dx="836" dy="443" grid="1" gridSize="10" guides="1" tooltips="1" connect="1" arrows="1" fold="1" page="1" pageScale="1" pageWidth="827" pageHeight="1169" math="0" shadow="0">
      <root>
        <mxCell id="WIyWlLk6GJQsqaUBKTNV-0" />
        <mxCell id="WIyWlLk6GJQsqaUBKTNV-1" parent="WIyWlLk6GJQsqaUBKTNV-0" />
        <mxCell id="LkYNku77OUWKXEnH894i-2" value="" style="edgeStyle=orthogonalEdgeStyle;rounded=0;orthogonalLoop=1;jettySize=auto;html=1;" parent="WIyWlLk6GJQsqaUBKTNV-1" source="LkYNku77OUWKXEnH894i-0" target="LkYNku77OUWKXEnH894i-1" edge="1">
          <mxGeometry relative="1" as="geometry" />
        </mxCell>
        <mxCell id="LkYNku77OUWKXEnH894i-0" value="bắt đầu" style="ellipse;whiteSpace=wrap;html=1;" parent="WIyWlLk6GJQsqaUBKTNV-1" vertex="1">
          <mxGeometry x="354" y="20" width="120" height="80" as="geometry" />
        </mxCell>
        <mxCell id="LkYNku77OUWKXEnH894i-4" value="" style="edgeStyle=orthogonalEdgeStyle;rounded=0;orthogonalLoop=1;jettySize=auto;html=1;" parent="WIyWlLk6GJQsqaUBKTNV-1" source="LkYNku77OUWKXEnH894i-1" target="LkYNku77OUWKXEnH894i-3" edge="1">
          <mxGeometry relative="1" as="geometry" />
        </mxCell>
        <mxCell id="LkYNku77OUWKXEnH894i-1" value="nhập a,b" style="shape=parallelogram;perimeter=parallelogramPerimeter;whiteSpace=wrap;html=1;fixedSize=1;" parent="WIyWlLk6GJQsqaUBKTNV-1" vertex="1">
          <mxGeometry x="354" y="150" width="120" height="60" as="geometry" />
        </mxCell>
        <mxCell id="LkYNku77OUWKXEnH894i-6" value="" style="edgeStyle=orthogonalEdgeStyle;rounded=0;orthogonalLoop=1;jettySize=auto;html=1;" parent="WIyWlLk6GJQsqaUBKTNV-1" source="LkYNku77OUWKXEnH894i-3" target="LkYNku77OUWKXEnH894i-5" edge="1">
          <mxGeometry relative="1" as="geometry" />
        </mxCell>
        <mxCell id="LkYNku77OUWKXEnH894i-3" value="a&amp;gt;b" style="rhombus;whiteSpace=wrap;html=1;" parent="WIyWlLk6GJQsqaUBKTNV-1" vertex="1">
          <mxGeometry x="374" y="249.94" width="80" height="80" as="geometry" />
        </mxCell>
        <mxCell id="LkYNku77OUWKXEnH894i-14" style="edgeStyle=orthogonalEdgeStyle;rounded=0;orthogonalLoop=1;jettySize=auto;html=1;entryX=1;entryY=0.5;entryDx=0;entryDy=0;exitX=0.45;exitY=0.983;exitDx=0;exitDy=0;exitPerimeter=0;" parent="WIyWlLk6GJQsqaUBKTNV-1" source="LkYNku77OUWKXEnH894i-5" edge="1">
          <mxGeometry relative="1" as="geometry">
            <mxPoint x="590" y="379.94" as="sourcePoint" />
            <mxPoint x="474.00000000000205" y="519.94" as="targetPoint" />
            <Array as="points">
              <mxPoint x="574" y="520" />
            </Array>
          </mxGeometry>
        </mxCell>
        <mxCell id="LkYNku77OUWKXEnH894i-5" value="in số b" style="shape=parallelogram;perimeter=parallelogramPerimeter;whiteSpace=wrap;html=1;fixedSize=1;" parent="WIyWlLk6GJQsqaUBKTNV-1" vertex="1">
          <mxGeometry x="520" y="259.94" width="120" height="60" as="geometry" />
        </mxCell>
        <mxCell id="LkYNku77OUWKXEnH894i-7" value="sai" style="text;html=1;align=center;verticalAlign=middle;resizable=0;points=[];autosize=1;strokeColor=none;fillColor=none;" parent="WIyWlLk6GJQsqaUBKTNV-1" vertex="1">
          <mxGeometry x="450" y="289.94" width="40" height="30" as="geometry" />
        </mxCell>
        <mxCell id="LkYNku77OUWKXEnH894i-11" value="đúng" style="text;html=1;align=center;verticalAlign=middle;resizable=0;points=[];autosize=1;strokeColor=none;fillColor=none;" parent="WIyWlLk6GJQsqaUBKTNV-1" vertex="1">
          <mxGeometry x="404" y="329.94" width="50" height="30" as="geometry" />
        </mxCell>
        <mxCell id="LkYNku77OUWKXEnH894i-12" value="kết thúc" style="ellipse;whiteSpace=wrap;html=1;" parent="WIyWlLk6GJQsqaUBKTNV-1" vertex="1">
          <mxGeometry x="354" y="480" width="120" height="80" as="geometry" />
        </mxCell>
        <mxCell id="LkYNku77OUWKXEnH894i-15" value="" style="edgeStyle=orthogonalEdgeStyle;rounded=0;orthogonalLoop=1;jettySize=auto;html=1;" parent="WIyWlLk6GJQsqaUBKTNV-1" source="LkYNku77OUWKXEnH894i-3" target="LkYNku77OUWKXEnH894i-10" edge="1">
          <mxGeometry relative="1" as="geometry">
            <mxPoint x="414" y="329.94" as="sourcePoint" />
            <mxPoint x="414" y="449.94" as="targetPoint" />
          </mxGeometry>
        </mxCell>
        <mxCell id="LkYNku77OUWKXEnH894i-16" value="" style="edgeStyle=orthogonalEdgeStyle;rounded=0;orthogonalLoop=1;jettySize=auto;html=1;" parent="WIyWlLk6GJQsqaUBKTNV-1" source="LkYNku77OUWKXEnH894i-10" edge="1">
          <mxGeometry relative="1" as="geometry">
            <mxPoint x="414" y="479.94" as="targetPoint" />
          </mxGeometry>
        </mxCell>
        <mxCell id="LkYNku77OUWKXEnH894i-10" value="in số a" style="shape=parallelogram;perimeter=parallelogramPerimeter;whiteSpace=wrap;html=1;fixedSize=1;" parent="WIyWlLk6GJQsqaUBKTNV-1" vertex="1">
          <mxGeometry x="354" y="379.94" width="120" height="60" as="geometry" />
        </mxCell>
      </root>
    </mxGraphModel>
  </diagram>
</mxfile>
